<?xml version="1.0" encoding="UTF-8" standalone="no"?>
<svg
   xml:space="preserve"
   id="svg1899"
   width="24"
   height="24"
   version="1.1"
   viewBox="0 0 6.35 6.35"
   sodipodi:docname="turing-smart-screen.svg"
   inkscape:export-filename="biglinux-grub-restore.png"
   inkscape:export-xdpi="800"
   inkscape:export-ydpi="800"
   inkscape:version="1.3.1 (91b66b0783, 2023-11-16, custom)"
   xmlns:inkscape="http://www.inkscape.org/namespaces/inkscape"
   xmlns:sodipodi="http://sodipodi.sourceforge.net/DTD/sodipodi-0.dtd"
   xmlns:xlink="http://www.w3.org/1999/xlink"
   xmlns="http://www.w3.org/2000/svg"
   xmlns:svg="http://www.w3.org/2000/svg"><sodipodi:namedview
     id="namedview1"
     pagecolor="#ffffff"
     bordercolor="#000000"
     borderopacity="0.25"
     inkscape:showpageshadow="2"
     inkscape:pageopacity="0.0"
     inkscape:pagecheckerboard="0"
     inkscape:deskcolor="#d1d1d1"
     inkscape:zoom="2.8284271"
     inkscape:cx="-26.693281"
     inkscape:cy="63.10928"
     inkscape:window-width="3440"
     inkscape:window-height="1358"
     inkscape:window-x="2560"
     inkscape:window-y="0"
     inkscape:window-maximized="1"
     inkscape:current-layer="svg1899" /><defs
     id="defs1896"><radialGradient
       id="paint0_radial_3_321"
       cx="0"
       cy="0"
       r="1"
       gradientTransform="matrix(0 5.82083 -5.82083 0 10.522 -5.814)"
       gradientUnits="userSpaceOnUse"><stop
         id="stop180"
         stop-color="#555" /><stop
         id="stop182"
         offset="1"
         stop-color="#222" /></radialGradient><radialGradient
       id="a-6"
       cx="0"
       cy="0"
       r="1"
       gradientTransform="rotate(90 -11.774 -11.51) scale(2.91036)"
       gradientUnits="userSpaceOnUse"><stop
         id="stop1"
         stop-color="#6EBBF7" /><stop
         id="stop2"
         offset="1"
         stop-color="#2196F3" /></radialGradient><radialGradient
       xlink:href="#paint0_radial_3_321"
       id="radialGradient26"
       cx="0"
       cy="0"
       r="1"
       gradientTransform="matrix(0,5.82083,-5.82083,0,3.175,0.265)"
       gradientUnits="userSpaceOnUse" /><linearGradient
       id="linearGradient31395"
       x1="12"
       x2="12"
       y1="0"
       y2="12"
       gradientTransform="matrix(.24253 0 0 .24253 .264 16.14)"
       gradientUnits="userSpaceOnUse"
       spreadMethod="pad"><stop
         id="stop31391"
         offset="0"
         style="stop-opacity:1;stop-color:#fff" /><stop
         id="stop31393"
         offset="1"
         style="stop-opacity:1;stop-color:#d9d9d9" /></linearGradient><linearGradient
       xlink:href="#a"
       id="linearGradient8909"
       x1="13.229"
       x2="2.117"
       y1="297"
       y2="280.07"
       gradientTransform="matrix(.2628 0 0 .20708 .94 -41.157)"
       gradientUnits="userSpaceOnUse" /><linearGradient
       id="a"
       x1="13.229"
       x2="2.117"
       y1="297"
       y2="280.07"
       gradientTransform="matrix(.99324 0 0 .78268 -16.45 -215.555)"
       gradientUnits="userSpaceOnUse"><stop
         id="stop3327"
         offset="0"
         stop-color="#66bcff"
         style="stop-color:#222;stop-opacity:1" /><stop
         id="stop3329"
         offset="1"
         stop-color="#b29aff"
         style="stop-color:#555;stop-opacity:1" /></linearGradient><style
       id="style125">.st0{display:none}</style><clipPath
       clipPathUnits="userSpaceOnUse"
       id="clipPath1"><rect
         style="opacity:0.521657;fill:#cccccc;stroke-width:0.264583;-inkscape-stroke:none;paint-order:stroke markers fill"
         id="rect2"
         width="31.149696"
         height="17.799826"
         x="-52.650478"
         y="-5.3311357"
         rx="5.1131253"
         ry="5.0943956" /></clipPath></defs><path
     id="path17"
     fill="url(#paint0_radial_3_321)"
     fill-rule="evenodd"
     d="m 2.539,0.295 a 0.312,0.312 0 0 0 0.09,-0.012 c 0.38,-0.025 0.76,-0.024 1.14,0.003 0.345,0.026 0.678,0.101 1,0.224 0.537,0.22 0.903,0.603 1.1,1.148 0.114,0.328 0.18,0.665 0.2,1.012 0.03,0.435 0.019,0.869 -0.03,1.302 A 3.143,3.143 0 0 1 5.803,4.851 1.87,1.87 0 0 1 4.71,5.86 C 4.301,5.998 3.881,6.07 3.45,6.078 A 5.668,5.668 0 0 1 2.007,5.968 C 1.129,5.774 0.589,5.24 0.384,4.367 A 5.04,5.04 0 0 1 0.266,3.174 C 0.256,2.745 0.302,2.324 0.402,1.907 0.617,1.09 1.135,0.584 1.957,0.39 2.149,0.343 2.343,0.311 2.539,0.296 Z"
     clip-rule="evenodd"
     style="fill:url(#radialGradient26);stroke-width:0.264583" /><g
     id="g11"
     transform="translate(0,0.01611563)"><path
       id="rect3"
       style="fill:#3bfa5a;fill-opacity:1;stroke-width:0.264582;-inkscape-stroke:none;paint-order:stroke markers fill"
       d="m 4.1647298,2.5807332 -0.2053938,0.00462 c -0.112989,0.00255 -0.2616096,0.00468 -0.3302743,0.00469 h -0.12488 l -0.025041,0.021959 c -0.01376,0.012081 -0.03152,0.031119 -0.039485,0.042311 l -0.014509,0.020353 0.06427,0.069471 0.06427,0.069471 0.2480908,-0.00347 c 0.1829733,-0.00253 0.2526885,-0.00581 0.2656827,-0.012514 0.020675,-0.010664 0.1414319,-0.1185639 0.150177,-0.1341898 0.0066,-0.011797 -0.00274,-0.029033 -0.033708,-0.062151 z m -1.8983047,0.00225 -0.038074,0.038588 c -0.045838,0.046414 -0.046473,0.04403 0.036273,0.1332907 l 0.055859,0.060225 0.255089,-0.0043 c 0.1829335,-0.00311 0.2586654,-0.00674 0.2676737,-0.012905 0.00691,-0.00473 0.044185,-0.03621 0.082825,-0.06992 0.078693,-0.068655 0.077653,-0.064674 0.030048,-0.1173679 L 2.9312088,2.582986 H 2.5988168 Z M 4.274778,2.7155037 c -0.00482,0.00272 -0.035213,0.028715 -0.067609,0.057785 -0.032395,0.02907 -0.067777,0.059841 -0.078652,0.068379 -0.016611,0.013041 -0.020812,0.023193 -0.026004,0.063435 -0.00988,0.076605 -0.029878,0.4304075 -0.025359,0.4484124 0.00399,0.015829 0.088455,0.1104337 0.09862,0.1104337 0.00274,0 0.013553,-0.00555 0.024079,-0.012263 C 4.248437,3.4206868 4.3059767,3.3707218 4.309516,3.3564048 4.313346,3.3408758 4.321066,3.236003 4.335389,3.005842 4.339379,2.941888 4.344469,2.863199 4.346687,2.8309457 L 4.350727,2.7722627 4.317085,2.7413797 C 4.2970383,2.722971 4.2799738,2.712558 4.2747764,2.7155062 Z m -0.9071617,0.00154 c -0.00465,7.58e-5 -0.024412,0.015326 -0.044043,0.0339 l -0.035699,0.033772 -0.011813,0.1052973 c -0.015067,0.1343971 -0.017124,0.1557814 -0.025682,0.2708837 -0.00389,0.052326 -0.00994,0.1173304 -0.013421,0.1444627 -0.00421,0.032611 -0.00389,0.054118 9.874e-4,0.063435 0.012633,0.024355 0.091307,0.1021828 0.1030499,0.1019586 0.00617,-1.178e-4 0.03623,-0.024425 0.066838,-0.053997 l 0.055666,-0.05374 0.00604,-0.095795 c 0.00333,-0.052677 0.00972,-0.1354346 0.014187,-0.183885 0.00449,-0.048451 0.00949,-0.1206058 0.011173,-0.1603858 l 0.00307,-0.07236 -0.044043,-0.05098 c -0.053645,-0.062115 -0.075247,-0.08275 -0.086293,-0.082569 z m -1.2417373,0.00424 c -0.01638,-0.00301 -0.029681,0.010111 -0.054575,0.036726 -0.035973,0.038459 -0.032115,0.020102 -0.047385,0.2267102 -0.00416,0.056203 -0.012316,0.1616969 -0.01817,0.234479 -0.00585,0.072782 -0.00818,0.1367469 -0.00514,0.1421513 0.012517,0.022252 0.095822,0.1095991 0.1045267,0.1095991 0.0052,0 0.034955,-0.02418 0.066196,-0.05374 0.053032,-0.050185 0.056821,-0.05569 0.05695,-0.082826 7.66e-5,-0.015984 0.00333,-0.051199 0.00726,-0.078331 0.010663,-0.073578 0.0223,-0.2211559 0.025298,-0.3207073 l 0.00268,-0.08809 -0.064463,-0.065682 C 2.1617217,2.743494 2.1422417,2.724301 2.1258617,2.721284 Z m 0.4055871,0.6862246 c -0.2241095,0 -0.25275,0.00128 -0.2683155,0.011942 -0.03327,0.022771 -0.1054902,0.09632 -0.1054256,0.1073519 3.55e-5,0.00611 0.014226,0.026976 0.031525,0.046356 0.0173,0.01938 0.031546,0.037675 0.03165,0.040707 5.22e-4,0.015167 0.051248,0.017772 0.2820552,0.014318 l 0.2502098,-0.00372 0.028188,-0.018106 c 0.038627,-0.024756 0.095153,-0.079139 0.095153,-0.091557 0,-0.0056 -0.021173,-0.03205 -0.047063,-0.058748 l -0.047129,-0.04854 z m 0.3991668,0.162123 c -0.00559,0 -0.035382,0.02676 -0.066196,0.059454 l -0.056051,0.059454 -0.00828,0.08321 c -0.00454,0.045795 -0.012923,0.1276942 -0.018618,0.1819588 -0.0057,0.054265 -0.012382,0.1290234 -0.014833,0.1661642 l -0.00443,0.067545 0.072039,0.075121 c 0.041882,0.043641 0.075428,0.073054 0.080065,0.070306 0.00437,-0.0026 0.026185,-0.020434 0.048475,-0.039679 0.038353,-0.033118 0.040525,-0.036732 0.04058,-0.067416 3.17e-5,-0.01783 0.0034,-0.060975 0.00745,-0.095859 0.0084,-0.072129 0.019751,-0.2398727 0.025041,-0.3699531 l 0.00361,-0.08809 -0.049312,-0.051108 c -0.027142,-0.028101 -0.05393,-0.051108 -0.059518,-0.051108 z m 0.395314,0.011942 c -0.01556,0.00242 -0.03437,0.020704 -0.074414,0.057656 l -0.051363,0.047384 -0.00668,0.080706 c -0.00366,0.044379 -0.011593,0.131435 -0.017655,0.1934517 -0.032023,0.3276674 -0.032636,0.3014751 0.00822,0.3395195 0.017978,0.016744 0.0378,0.030427 0.044043,0.030369 0.00624,-5.75e-5 0.046615,-0.034153 0.089759,-0.075763 l 0.07846,-0.075699 0.00848,-0.1338687 c 0.00465,-0.073645 0.011336,-0.1592064 0.014899,-0.1901131 0.00356,-0.030906 0.00649,-0.086495 0.00649,-0.1235316 v -0.067351 l -0.045586,-0.045137 c -0.026814,-0.026578 -0.039075,-0.04004 -0.054641,-0.037625 z m 0.8453958,3.206e-4 c -0.016299,0.0025 -0.035852,0.022657 -0.078587,0.063628 l -0.053481,0.0513 v 0.041797 c 0,0.023017 -0.00312,0.07294 -0.007,0.1108832 -0.00389,0.037943 -0.00852,0.092728 -0.010401,0.1217982 -0.00186,0.02907 -0.00611,0.087765 -0.00937,0.1304017 -0.00487,0.063767 -0.00411,0.080626 0.00449,0.094896 0.015571,0.025813 0.1225449,0.1347756 0.1298883,0.1323279 0.0035,-0.00117 0.021688,-0.014713 0.040514,-0.030112 0.018826,-0.0154 0.036553,-0.03271 0.039359,-0.038524 0.00279,-0.00581 0.00741,-0.047047 0.010209,-0.091621 0.00279,-0.044575 0.00844,-0.1095784 0.012518,-0.1444628 0.00734,-0.062693 0.017989,-0.1778073 0.026902,-0.2908516 L 4.280924,3.6751195 4.230392,3.6243975 C 4.200676,3.5945615 4.187622,3.5793925 4.171326,3.5818965 Z m -1.5381746,0.652461 c -0.049531,-2.062e-4 -0.1156683,3.654e-4 -0.1865818,0.00173 l -0.2572079,0.00495 -0.073966,0.071269 c -0.040662,0.039209 -0.07526,0.072091 -0.076918,0.073066 -0.00572,0.00337 0.01625,0.03767 0.041991,0.065554 l 0.025808,0.02793 0.1014454,-0.00347 c 0.055792,-0.00194 0.2060634,-0.0052 0.3339334,-0.00726 l 0.232489,-0.00379 0.037045,-0.036597 c 0.020386,-0.020134 0.036969,-0.039907 0.036854,-0.043916 -3.726e-4,-0.013256 -0.1113384,-0.1404251 -0.127962,-0.1466457 -0.00449,-0.00168 -0.037401,-0.00262 -0.086934,-0.00282 z m 1.0543207,0.00475 -0.2648484,6.43e-5 -0.073387,0.068828 c -0.083855,0.078702 -0.084699,0.081894 -0.036214,0.1337403 l 0.027996,0.029984 h 0.3377218 0.3377222 l 0.027673,-0.037047 c 0.015242,-0.020349 0.029982,-0.040753 0.032745,-0.045393 0.00307,-0.00514 -0.020238,-0.036097 -0.059775,-0.079294 l -0.064847,-0.070883 z"
       sodipodi:nodetypes="ccccccccccscccccccccccccccssccsccccccccsccccccsccccsccsscccccscsccccccscscccccsccsscccccccccsccccssscccccsccccsccsscccscccccsccccccccccccccccccccccccccccccccccc" /><text
       xml:space="preserve"
       style="font-size:0.364103px;line-height:1.7;font-family:Lato;-inkscape-font-specification:Lato;letter-spacing:0.054634px;word-spacing:0px;fill:#3bfa5a;fill-opacity:1;stroke-width:0.264582;-inkscape-stroke:none;paint-order:stroke markers fill"
       x="4.3228788"
       y="4.3875012"
       id="text3"><tspan
         sodipodi:role="line"
         id="tspan3"
         style="font-style:normal;font-variant:normal;font-weight:800;font-stretch:normal;font-family:Lato;-inkscape-font-specification:'Lato Ultra-Bold';fill:#3bfa5a;fill-opacity:1;stroke-width:0.264582"
         x="4.3228788"
         y="4.3875012">%</tspan></text></g><text
     xml:space="preserve"
     style="font-size:0.596955px;line-height:1.7;font-family:Lato;-inkscape-font-specification:Lato;letter-spacing:0.0895743px;word-spacing:0px;fill:#ffffff;stroke-width:0.264583;-inkscape-stroke:none;paint-order:stroke markers fill"
     x="2.4546051"
     y="5.1501789"
     id="text4"><tspan
       sodipodi:role="line"
       id="tspan4"
       style="font-style:normal;font-variant:normal;font-weight:800;font-stretch:normal;font-family:Lato;-inkscape-font-specification:'Lato Ultra-Bold';stroke-width:0.264583"
       x="2.4546051"
       y="5.1501789">CPU</tspan></text><text
     xml:space="preserve"
     style="font-size:0.29501px;line-height:1.7;font-family:Lato;-inkscape-font-specification:Lato;letter-spacing:0.0442667px;word-spacing:0px;fill:#ffffff;stroke-width:0.264583;-inkscape-stroke:none;paint-order:stroke markers fill"
     x="2.7026658"
     y="2.3795059"
     id="text6"><tspan
       sodipodi:role="line"
       id="tspan6"
       style="font-style:normal;font-variant:normal;font-weight:800;font-stretch:normal;font-family:Lato;-inkscape-font-specification:'Lato Ultra-Bold';stroke-width:0.264583"
       x="2.7026658"
       y="2.3795059">TEMP</tspan></text><path
     id="path7"
     style="fill:#000000;fill-opacity:1;stroke-width:0.264583"
     d="m 3.197891,0.43809613 c -0.1829821,-4.8154e-4 -0.3659562,0.005384 -0.5489384,0.0174189 a 0.30047621,0.30047621 0 0 1 -0.086596,0.011447 v 9.9195e-4 C 2.3735961,0.4824 2.18688,0.51326718 2.0019718,0.55853123 1.2103334,0.74536512 0.71151892,1.2323912 0.50446019,2.0192143 0.40815371,2.4208119 0.36394037,2.8263652 0.37357102,3.2395196 a 4.8538465,4.8538465 0 0 0 0.001994,0.1074983 C 0.38753276,3.0337484 0.43082772,2.724407 0.50446019,2.4173596 0.71151892,1.6305364 1.2103334,1.1435104 2.0019719,0.95667608 2.1868801,0.91141203 2.3735962,0.88054484 2.5623568,0.86609887 v -9.9195e-4 a 0.30047621,0.30047621 0 0 0 0.086596,-0.011447 c 0.3659643,-0.0240766 0.7319124,-0.0235142 1.0978766,0.002485 0.3322571,0.0250397 0.6533972,0.0975352 0.963504,0.21599198 0.5171648,0.2118742 0.8693335,0.5804721 1.0590573,1.1053418 0.1097893,0.315885 0.1733401,0.6407672 0.1926014,0.9749503 0.00626,0.090293 0.00985,0.1805331 0.012443,0.2707366 0.00664,-0.22274 0.00299,-0.4455921 -0.012443,-0.6688789 C 5.9427307,2.4201038 5.879178,2.0952216 5.7693906,1.7793367 5.5796668,1.2544669 5.2274981,0.88586895 4.7103333,0.67399499 4.4002264,0.55553812 4.0790863,0.48304255 3.7468292,0.45800287 3.5638471,0.44500149 3.3808731,0.43857785 3.197891,0.43809613 Z" /><g
     id="g10"><path
       id="path4"
       style="fill:#3bfa5a;fill-opacity:1;stroke-width:0.264582;-inkscape-stroke:none;paint-order:stroke markers fill"
       d="m 3.4755873,1.0136298 -0.1015037,0.00229 c -0.055838,0.00126 -0.1292849,0.00231 -0.1632183,0.00232 h -0.061715 l -0.012376,0.010852 c -0.0068,0.00597 -0.015577,0.015378 -0.019513,0.02091 l -0.00717,0.010058 0.031761,0.034332 0.031761,0.034332 0.122604,-0.00172 c 0.090424,-0.00125 0.1248763,-0.00287 0.1312979,-0.00618 0.010217,-0.00527 0.069894,-0.058593 0.074216,-0.066315 0.00327,-0.00583 -0.00135,-0.014348 -0.016658,-0.030715 z m 0.054385,0.066603 c -0.00238,0.00134 -0.017401,0.014191 -0.033412,0.028557 -0.01601,0.014366 -0.033494,0.029573 -0.038869,0.033792 -0.00821,0.00644 -0.010285,0.011462 -0.012851,0.031349 -0.00488,0.037858 -0.014766,0.2127033 -0.012532,0.2216011 0.00197,0.00782 0.043714,0.054575 0.048737,0.054575 0.00135,0 0.00669,-0.00274 0.011899,-0.00606 0.02401,-0.015319 0.052445,-0.040011 0.054194,-0.047087 0.00189,-0.00767 0.00571,-0.059502 0.012786,-0.1732448 0.00197,-0.031606 0.00449,-0.070493 0.00559,-0.086432 l 0.002,-0.029001 -0.016625,-0.015262 c -0.00991,-0.0091 -0.018342,-0.014244 -0.020911,-0.012787 z m -0.6086732,7.618e-4 c -0.00219,3.07e-5 -0.00948,0.0049 -0.016182,0.01082 -0.0067,0.00592 -0.024159,0.020879 -0.038806,0.033253 l -0.026622,0.022496 -0.00365,0.033729 c -0.00427,0.039461 -0.01095,0.1295758 -0.013454,0.1817167 l -0.00176,0.036584 0.022115,0.025225 c 0.012164,0.013877 0.024188,0.025247 0.026716,0.025257 0.00255,1.01e-5 0.012703,-0.00659 0.022622,-0.014659 0.040333,-0.032823 0.044178,-0.037593 0.044168,-0.054829 -9.4e-6,-0.016676 0.00799,-0.1227527 0.01393,-0.1847309 0.00192,-0.020113 0.0034,-0.049119 0.0033,-0.064443 L 2.9534863,1.1035539 2.939367,1.0922261 C 2.931597,1.0859961 2.923468,1.0809631 2.921281,1.0809941 Z m 0.2268047,0.3412228 -0.027446,0.026748 c -0.015103,0.014698 -0.027458,0.029186 -0.027446,0.032206 1.11e-5,0.00301 0.010083,0.016333 0.022401,0.029573 l 0.022401,0.024051 0.086432,-0.00229 c 0.047529,-0.00126 0.1046478,-0.00231 0.1269193,-0.00231 h 0.040487 l 0.030017,-0.024622 c 0.016517,-0.013542 0.029972,-0.026455 0.029889,-0.028715 -7.97e-5,-0.00226 -0.010701,-0.015495 -0.023607,-0.029382 l -0.02348,-0.025257 h -0.128284 z m -0.2823954,0.080116 c -0.00276,0 -0.017486,0.013225 -0.032713,0.029382 l -0.0277,0.029382 -0.00409,0.041122 c -0.00224,0.022632 -0.00638,0.063105 -0.0092,0.089922 -0.00281,0.026818 -0.00611,0.063762 -0.00733,0.082117 l -0.00219,0.03338 0.035601,0.037124 c 0.020698,0.021567 0.037275,0.036102 0.039567,0.034744 0.00217,-0.00128 0.01294,-0.010099 0.023956,-0.019609 0.018954,-0.016366 0.020027,-0.018152 0.020054,-0.033317 1.55e-5,-0.00881 0.00168,-0.030134 0.00368,-0.047372 0.00415,-0.035646 0.00976,-0.1185428 0.012376,-0.1828272 l 0.00178,-0.043533 -0.024369,-0.025257 C 2.8817242,1.5137049 2.868486,1.5023349 2.8657241,1.5023349 Z m 0.6131468,0.00606 c -0.00805,0.00124 -0.017718,0.011197 -0.038837,0.031444 l -0.02643,0.025352 v 0.020656 c 0,0.011375 -0.00154,0.036047 -0.00346,0.054797 -0.00192,0.018752 -0.00421,0.045825 -0.00514,0.060191 -9.181e-4,0.014366 -0.00301,0.043373 -0.00463,0.064443 -0.00241,0.031513 -0.00203,0.039844 0.00222,0.046897 0.00769,0.012757 0.06056,0.066605 0.064189,0.065395 0.00173,-5.779e-4 0.010718,-0.00728 0.020021,-0.014881 0.0093,-0.00761 0.018064,-0.016165 0.019451,-0.019038 0.00138,-0.00288 0.00366,-0.02325 0.00505,-0.045278 0.00138,-0.022029 0.00417,-0.054153 0.00618,-0.071392 0.00363,-0.030983 0.00889,-0.087871 0.013294,-0.143736 l 0.00224,-0.028779 -0.024972,-0.025066 c -0.014682,-0.014744 -0.021133,-0.02224 -0.029187,-0.021003 z m -0.2391159,0.3247831 -0.1308856,3.18e-5 -0.036267,0.034014 c -0.041441,0.038894 -0.041857,0.040471 -0.017897,0.066093 l 0.013836,0.014818 h 0.1668988 0.166899 l 0.013676,-0.018308 c 0.00753,-0.010056 0.014817,-0.02014 0.016182,-0.022433 0.00152,-0.00255 -0.010002,-0.017839 -0.029541,-0.039186 l -0.032047,-0.03503 z"
       sodipodi:nodetypes="ccccccccccsccccssccscccccccccsccccccscsccccccccscccccccccccscccccccccsccccsscccscccccscccccccccccccccccccc" /><text
       xml:space="preserve"
       style="font-size:0.437977px;line-height:1.7;font-family:Lato;-inkscape-font-specification:Lato;letter-spacing:0.065719px;word-spacing:0px;fill:#3bfa5a;stroke-width:0.264582;-inkscape-stroke:none;paint-order:stroke markers fill;fill-opacity:1"
       x="3.6899567"
       y="1.412783"
       id="text10"><tspan
         sodipodi:role="line"
         id="tspan10"
         style="font-style:normal;font-variant:normal;font-weight:800;font-stretch:normal;font-family:Lato;-inkscape-font-specification:'Lato Ultra-Bold';stroke-width:0.264582;fill:#3bfa5a;fill-opacity:1"
         x="3.6899567"
         y="1.412783">°</tspan></text></g></svg>
